<?xml version="1.0" encoding="UTF-8"?>
<svg xmlns="http://www.w3.org/2000/svg" xmlns:xlink="http://www.w3.org/1999/xlink" width="3072pt" height="3072pt" viewBox="0 0 3072 3072" version="1.1">
<g id="surface1">
<path style=" stroke:none;fill-rule:nonzero;fill:rgb(0%,0%,0%);fill-opacity:1;" d="M 2506.105469 1516.382813 C 2506.105469 1735.992188 2418.867188 1946.609375 2263.578125 2101.894531 C 2108.292969 2257.183594 1897.675781 2344.421875 1678.070313 2344.421875 L 1393.929688 2344.421875 C 1174.324219 2344.421875 963.707031 2257.183594 808.421875 2101.894531 C 653.132813 1946.609375 565.894531 1735.992188 565.894531 1516.382813 L 565.894531 680.222656 C 565.894531 607.019531 594.972656 536.816406 646.738281 485.050781 C 700.632813 431.15625 743.746094 404.210938 808.421875 404.210938 C 873.09375 404.210938 916.210938 431.15625 970.105469 485.050781 C 1024 538.949219 1077.894531 619.789063 1131.789063 727.578125 C 1185.683594 835.367188 1320.421875 889.261719 1536 889.261719 C 1751.578125 889.261719 1886.316406 835.367188 1940.210938 727.578125 C 1994.105469 619.789063 2048 538.949219 2101.894531 485.050781 C 2155.789063 431.15625 2198.90625 404.210938 2263.578125 404.210938 C 2328.253906 404.210938 2371.367188 431.15625 2425.261719 485.050781 C 2477.027344 536.816406 2506.105469 607.019531 2506.105469 680.222656 Z M 2506.105469 1516.382813 "/>
<path style=" stroke:none;fill-rule:nonzero;fill:rgb(99.571271%,59.482294%,0.156506%);fill-opacity:1;" d="M 2182.738281 2021.050781 C 2079.210938 2124.578125 1938.800781 2182.738281 1792.398438 2182.738281 L 1279.601563 2182.738281 C 1133.199219 2182.738281 992.789063 2124.578125 889.261719 2021.050781 C 781.472656 1913.261719 727.578125 1843.199219 727.578125 1778.527344 C 727.578125 1746.191406 727.578125 1721.9375 727.578125 1697.683594 L 1050.949219 1697.683594 L 1050.949219 1536 L 727.578125 1536 C 727.578125 1455.15625 727.578125 1374.316406 727.578125 1293.472656 C 727.578125 1212.632813 727.578125 1131.789063 727.578125 1050.949219 L 1050.949219 1050.949219 L 889.261719 889.261719 L 751.734375 736.664063 C 765.089844 701.148438 783.984375 671.171875 808.421875 646.738281 L 889.261719 565.894531 L 1212.632813 1050.949219 L 1859.367188 1050.949219 L 2182.738281 565.894531 L 2263.578125 646.738281 C 2288.015625 671.171875 2306.910156 701.148438 2320.265625 736.664063 L 2182.738281 889.261719 L 2021.050781 1050.949219 L 2344.421875 1050.949219 C 2344.421875 1131.789063 2344.421875 1212.632813 2344.421875 1293.472656 C 2344.421875 1374.316406 2344.421875 1455.15625 2344.421875 1536 L 2021.050781 1536 L 2021.050781 1697.683594 L 2344.421875 1697.683594 C 2344.421875 1721.9375 2344.421875 1746.191406 2344.421875 1778.527344 C 2344.421875 1843.199219 2290.527344 1913.261719 2182.738281 2021.050781 Z M 2182.738281 2021.050781 "/>
<path style=" stroke:none;fill-rule:nonzero;fill:rgb(0%,0%,0%);fill-opacity:1;" d="M 1374.316406 2021.050781 L 1212.632813 1697.683594 L 1859.367188 1697.683594 L 1697.683594 2021.050781 Z M 1374.316406 2021.050781 "/>
<path style=" stroke:none;fill-rule:nonzero;fill:rgb(47.143565%,33.173608%,28.893686%);fill-opacity:1;" d="M 889.261719 889.261719 L 1050.949219 1050.949219 L 727.578125 1050.949219 C 727.578125 997.050781 727.578125 943.15625 727.578125 889.261719 C 727.578125 830.34375 735.628906 779.476563 751.734375 736.664063 Z M 889.261719 889.261719 "/>
<path style=" stroke:none;fill-rule:nonzero;fill:rgb(47.143565%,33.173608%,28.893686%);fill-opacity:1;" d="M 2344.421875 889.261719 C 2344.421875 943.15625 2344.421875 997.050781 2344.421875 1050.949219 L 2021.050781 1050.949219 L 2182.738281 889.261719 L 2320.265625 736.664063 C 2336.371094 779.476563 2344.421875 830.34375 2344.421875 889.261719 Z M 2344.421875 889.261719 "/>
<path style=" stroke:none;fill-rule:nonzero;fill:rgb(0%,0%,0%);fill-opacity:1;" d="M 1374.316406 1212.632813 L 1374.316406 1536 L 1212.632813 1536 L 1212.632813 1212.632813 Z M 1374.316406 1212.632813 "/>
<path style=" stroke:none;fill-rule:nonzero;fill:rgb(0%,0%,0%);fill-opacity:1;" d="M 1859.367188 1536 L 1697.683594 1536 L 1697.683594 1212.632813 L 1859.367188 1212.632813 Z M 1859.367188 1536 "/>
<path style=" stroke:none;fill-rule:nonzero;fill:rgb(90.729455%,11.792078%,38.431373%);fill-opacity:1;" d="M 889.261719 1697.683594 L 727.578125 1697.683594 C 727.578125 1673.429688 727.578125 1649.179688 727.578125 1616.84375 C 727.578125 1589.894531 727.578125 1562.949219 727.578125 1536 L 1050.949219 1536 L 1050.949219 1697.683594 Z M 889.261719 1697.683594 "/>
<path style=" stroke:none;fill-rule:nonzero;fill:rgb(90.729455%,11.792078%,38.431373%);fill-opacity:1;" d="M 2182.738281 1697.683594 L 2021.050781 1697.683594 L 2021.050781 1536 L 2344.421875 1536 C 2344.421875 1562.949219 2344.421875 1589.894531 2344.421875 1616.84375 C 2344.421875 1649.179688 2344.421875 1673.429688 2344.421875 1697.683594 Z M 2182.738281 1697.683594 "/>
</g>
</svg>
