<?xml version="1.0" encoding="UTF-8"?>
<svg xmlns="http://www.w3.org/2000/svg" xmlns:xlink="http://www.w3.org/1999/xlink" width="3072pt" height="3072pt" viewBox="0 0 3072 3072" version="1.1">
<g id="surface1">
<path style=" stroke:none;fill-rule:nonzero;fill:rgb(0%,0%,0%);fill-opacity:1;" d="M 492.425781 806.953125 C 644.390625 655.363281 849.171875 567.652344 1063.78125 567.652344 L 1372.558594 567.652344 L 1372.558594 1376.074219 L 1537.757813 1376.074219 L 1537.757813 1052.707031 L 1695.925781 1052.707031 L 1695.925781 1376.074219 L 1861.125 1376.074219 L 1861.125 1052.707031 L 2019.292969 1052.707031 L 2019.292969 1376.074219 L 2184.496094 1376.074219 L 2184.496094 1213.46875 C 2184.496094 1132.601563 2215.496094 1051.386719 2276.503906 990.414063 C 2338.097656 928.855469 2420.210938 897.699219 2501.789063 897.742188 C 2582.890625 897.789063 2664.152344 928.824219 2724.914063 989.695313 C 2784.703125 1049.585938 2814.96875 1129.175781 2814.917969 1208.246094 C 2814.867188 1286.523438 2784.859375 1364.777344 2726.238281 1423.402344 L 2613.640625 1536 L 2726.238281 1648.597656 C 2784.859375 1707.222656 2814.867188 1785.476563 2814.917969 1863.753906 C 2814.96875 1942.824219 2784.703125 2022.414063 2724.914063 2082.304688 C 2664.152344 2143.175781 2582.890625 2174.210938 2501.789063 2174.257813 C 2420.210938 2174.300781 2338.097656 2143.144531 2276.503906 2081.585938 C 2215.496094 2020.613281 2184.496094 1939.398438 2184.496094 1858.53125 L 2184.496094 1695.925781 L 2019.292969 1695.925781 L 2019.292969 2019.292969 L 1861.125 2019.292969 L 1861.125 1695.925781 L 1695.925781 1695.925781 L 1695.925781 2019.292969 L 1537.757813 2019.292969 L 1537.757813 1695.925781 L 1372.558594 1695.925781 L 1372.558594 2504.347656 L 1063.78125 2504.347656 C 849.167969 2504.347656 644.390625 2416.636719 492.425781 2265.046875 C 334.113281 2107.128906 245.808594 1893.164063 245.808594 1671.976563 L 245.808594 1400.023438 C 245.808594 1178.835938 334.117188 964.871094 492.425781 806.953125 Z M 492.425781 806.953125 "/>
<path style=" stroke:none;fill-rule:nonzero;fill:rgb(34.184125%,64.073118%,99.857886%);fill-opacity:1;" d="M 578.140625 896.417969 C 682.878906 791.664063 825.328125 732.140625 974.128906 732.140625 L 1208.070313 732.140625 L 1208.070313 2339.859375 L 974.238281 2339.859375 C 825.445313 2339.859375 682.652344 2280.414063 577.597656 2175.058594 C 473.867188 2071.023438 414.914063 1930.027344 414.914063 1782.578125 L 414.914063 1289.5625 C 414.914063 1142.191406 473.78125 1000.789063 578.140625 896.417969 Z M 578.140625 896.417969 "/>
<path style=" stroke:none;fill-rule:nonzero;fill:rgb(34.184125%,64.073118%,99.857886%);fill-opacity:1;" d="M 2326.253906 1032.78125 L 2697.1875 1032.78125 L 2590.320313 1246.511719 C 2545.902344 1335.34375 2522.035156 1434.367188 2522.035156 1536 C 2522.035156 1637.632813 2545.902344 1736.65625 2590.320313 1825.488281 L 2697.1875 2039.21875 L 2326.253906 2039.21875 Z M 2326.253906 1032.78125 "/>
<path style=" stroke:none;fill-rule:nonzero;fill:rgb(0%,0%,0%);fill-opacity:1;" d="M 889.261719 1374.316406 L 889.261719 1697.683594 L 727.578125 1697.683594 L 727.578125 1374.316406 Z M 889.261719 1374.316406 "/>
</g>
</svg>
