<?xml version="1.0" encoding="UTF-8"?>
<svg xmlns="http://www.w3.org/2000/svg" xmlns:xlink="http://www.w3.org/1999/xlink" width="3072pt" height="3072pt" viewBox="0 0 3072 3072" version="1.1">
<g id="surface1">
<path style=" stroke:none;fill-rule:nonzero;fill:rgb(100%,100%,100%);fill-opacity:1;" d="M 330.53125 19.441406 L 2741.46875 19.441406 L 2741.46875 3052.558594 L 330.53125 3052.558594 Z M 330.53125 19.441406 "/>
<path style=" stroke:none;fill-rule:nonzero;fill:rgb(20.674643%,21.869235%,22.365533%);fill-opacity:1;" d="M 652.722656 182.023438 C 704.859375 234.160156 788.324219 254.496094 884.253906 232.402344 C 1028.585938 199.160156 1131.679688 188.117188 1207.945313 186.730469 C 1347.246094 184.191406 1456.058594 213.03125 1542.28125 226.25 C 1674.46875 246.511719 1752.328125 228.074219 1809.902344 188.289063 L 1886.128906 135.621094 L 1886.128906 188.6875 C 1886.128906 215.207031 1877.164063 247.445313 1849.460938 275.5625 C 1829.949219 295.367188 1791.792969 324.445313 1698.246094 361.0625 C 1594.132813 401.820313 1527.050781 410.890625 1480.648438 410.890625 L 1459.300781 410.890625 L 1434.777344 435.410156 C 1388.738281 481.453125 1362.226563 551.777344 1362.441406 639.789063 C 1362.664063 730.226563 1391.085938 789.363281 1426.96875 825.75 C 1465.78125 865.109375 1523.132813 887.386719 1592.546875 887.664063 C 1673.589844 887.992188 1741.242188 858.6875 1785.296875 814.242188 C 1825.957031 773.222656 1850.765625 714.582031 1851.949219 640.671875 C 1853.019531 573.757813 1835 519.761719 1822.046875 489.1875 L 1803.207031 444.714844 L 1845.796875 466.714844 C 1876.410156 482.527344 1898.816406 509.742188 1909.328125 541.507813 C 1921.871094 579.410156 1943.277344 615.242188 1973.503906 644.601563 L 2144.210938 810.402344 C 2294.042969 955.925781 2351.9375 1061.0625 2379.621094 1130.691406 C 2408.523438 1203.394531 2433.964844 1311.503906 2433.09375 1517.054688 C 2432.289063 1706.898438 2409.695313 1839.894531 2398.355469 1901.453125 C 2385.835938 1969.410156 2365.824219 2065.46875 2360.476563 2168.863281 L 2350.015625 2371.125 L 2454.671875 2290.222656 C 2504.605469 2251.625 2563.644531 2198.003906 2604.367188 2118.097656 L 2665.722656 1997.707031 L 2651.246094 2142.0625 C 2642.515625 2229.164063 2601.242188 2305.105469 2547.246094 2361.230469 C 2501.316406 2408.972656 2450.828125 2437.707031 2407.46875 2454.242188 L 2359.59375 2472.503906 L 2252.566406 2666.621094 L 2234.792969 2646.640625 C 2204.714844 2612.820313 2160.003906 2591.789063 2096.957031 2588.734375 C 2021.84375 2585.097656 1918.753906 2603.40625 1689.960938 2614.46875 L 1380.339844 2629.4375 L 1453.773438 2745.628906 L 1423.621094 2733.714844 C 1386.199219 2718.921875 1309.933594 2694.359375 1188.007813 2694.496094 C 1058.789063 2694.640625 939.726563 2722.421875 820.445313 2778.132813 C 730.511719 2820.132813 693.222656 2853.332031 678.546875 2868.40625 C 651.90625 2895.769531 640.6875 2927.507813 640.6875 2957.242188 L 640.6875 2973.851563 L 585.535156 2973.851563 C 532.511719 2973.851563 485.414063 2946.714844 457.351563 2908.433594 C 430.65625 2872.015625 420.472656 2822.289063 442.226563 2774.820313 C 457.320313 2741.886719 487.972656 2704.863281 549.984375 2663.660156 C 635.464844 2606.859375 723.476563 2579.324219 795.367188 2565.007813 C 873.929688 2549.359375 947.574219 2513.816406 1010.261719 2451.128906 L 1107.878906 2353.511719 L 1107.878906 2502.808594 L 1502.433594 2429.992188 L 1456.96875 2237.300781 L 1321.351563 2180.375 C 1230.453125 2142.214844 1142.835938 2083.125 1067.402344 2006.402344 C 993.238281 1930.96875 949.585938 1857.492188 922.554688 1787.632813 C 896.433594 1720.121094 871.277344 1618.6875 859.53125 1434.273438 L 844.257813 1194.515625 L 1186.917969 1221.9375 L 861.019531 1079.660156 C 792.109375 1049.574219 734.917969 997.734375 696.078125 933.234375 C 661.332031 875.539063 646.195313 815.894531 646.28125 760.964844 C 646.375 702.816406 663.496094 642.742188 697.351563 583.617188 L 751.859375 488.421875 L 806.832031 488.421875 L 789.007813 519.691406 C 762.589844 566.039063 754.808594 615.574219 755.253906 654.703125 C 755.988281 719.355469 779.894531 779.121094 824.054688 824.769531 C 852.988281 854.675781 889.710938 877.847656 928.527344 890.210938 C 970.082031 903.449219 1013.054688 903.507813 1054.921875 890.175781 C 1093.960938 877.742188 1132.558594 853.984375 1165.5625 820.980469 L 1227.28125 759.261719 L 1227.28125 612.664063 C 1227.28125 549.398438 1207.226563 487.652344 1163.777344 444.203125 L 1139.34375 419.765625 L 672.519531 293.78125 C 657.523438 289.730469 641.519531 281.632813 627.972656 267.777344 C 608.53125 247.886719 599.859375 222.074219 599.859375 197.8125 L 599.859375 129.160156 Z M 652.722656 182.023438 "/>
<path style=" stroke:none;fill-rule:nonzero;fill:rgb(97.592224%,98.266902%,98.039216%);fill-opacity:1;" d="M 1532.863281 1126.765625 C 1584.746094 1063.433594 1656.445313 1029.507813 1730.167969 1029.507813 L 1848.0625 1029.507813 L 1848.0625 1070.34375 L 1828.195313 1070.34375 C 1772.371094 1070.34375 1723.730469 1097.425781 1688.207031 1132.421875 C 1634.347656 1185.476563 1605.449219 1260.222656 1605.449219 1334.613281 L 1605.449219 1341.570313 C 1605.449219 1418.652344 1636.074219 1492.359375 1690.148438 1546.433594 L 1910.648438 1766.933594 C 1968.910156 1825.195313 2010.832031 1892.4375 2034.949219 1963.898438 L 2077.519531 2090.015625 L 1978.15625 1990.652344 C 1899.972656 1912.46875 1812.875 1846.277344 1668.40625 1716.457031 L 1575.464844 1632.933594 C 1503.902344 1568.625 1456.152344 1480.214844 1456.152344 1378.285156 L 1456.152344 1349.71875 C 1456.152344 1266.332031 1484.144531 1186.238281 1532.863281 1126.765625 Z M 1532.863281 1126.765625 "/>
<path style=" stroke:none;fill-rule:nonzero;fill:rgb(97.592224%,98.266902%,98.039216%);fill-opacity:1;" d="M 1615.464844 2431.445313 L 1575.515625 2391.492188 L 1613.851563 2353.15625 C 1638.992188 2328.019531 1673.113281 2313.84375 1708.667969 2313.84375 L 1749.667969 2313.84375 C 1814.488281 2313.84375 1882.078125 2326.035156 1948.210938 2352.09375 L 2009.710938 2376.332031 C 2024.9375 2382.332031 2035.0625 2397.019531 2035.375 2413.5625 C 2035.667969 2429.066406 2029.183594 2443.953125 2018 2454.695313 C 2006.804688 2465.445313 1991.859375 2471.464844 1976.320313 2471.464844 L 1711.664063 2471.464844 C 1675.320313 2471.464844 1640.800781 2456.777344 1615.464844 2431.445313 Z M 1615.464844 2431.445313 "/>
<path style=" stroke:none;fill-rule:nonzero;fill:rgb(20.674643%,21.869235%,22.365533%);fill-opacity:1;" d="M 1085.691406 696.828125 C 1073.480469 709.039063 1056.894531 715.933594 1039.589844 715.933594 L 943.601563 715.933594 C 926.296875 715.933594 909.707031 709.039063 897.5 696.828125 C 885.289063 684.621094 878.398438 668.03125 878.398438 650.726563 L 878.398438 554.738281 C 878.398438 537.433594 885.289063 520.847656 897.5 508.636719 C 909.707031 496.429688 926.296875 489.535156 943.601563 489.535156 L 1039.589844 489.535156 C 1056.894531 489.535156 1073.480469 496.429688 1085.691406 508.636719 C 1097.898438 520.847656 1104.792969 537.433594 1104.792969 554.738281 L 1104.792969 650.726563 C 1104.792969 668.03125 1097.898438 684.621094 1085.691406 696.828125 Z M 1085.691406 696.828125 "/>
<path style=" stroke:none;fill-rule:nonzero;fill:rgb(20.674643%,21.869235%,22.365533%);fill-opacity:1;" d="M 1688.082031 650.726563 C 1688.082031 668.03125 1681.191406 684.621094 1668.980469 696.828125 C 1656.773438 709.039063 1640.183594 715.933594 1622.878906 715.933594 L 1526.890625 715.933594 C 1509.585938 715.933594 1493 709.039063 1480.789063 696.828125 C 1468.582031 684.621094 1461.6875 668.03125 1461.6875 650.726563 L 1461.6875 554.738281 C 1461.6875 537.433594 1468.582031 520.847656 1480.789063 508.636719 C 1493 496.429688 1509.585938 489.535156 1526.890625 489.535156 L 1622.878906 489.535156 C 1640.183594 489.535156 1656.773438 496.429688 1668.980469 508.636719 C 1681.191406 520.847656 1688.082031 537.433594 1688.082031 554.738281 Z M 1688.082031 650.726563 "/>
<path style=" stroke:none;fill-rule:nonzero;fill:rgb(97.592224%,98.266902%,98.039216%);fill-opacity:1;" d="M 1382.765625 894.378906 L 1283.242188 993.902344 L 1183.714844 894.378906 L 1283.242188 794.855469 Z M 1382.765625 894.378906 "/>
<path style=" stroke:none;fill-rule:nonzero;fill:rgb(97.592224%,98.266902%,98.039216%);fill-opacity:1;" d="M 1071.398438 558.949219 L 1071.398438 604.640625 C 1071.398438 627.734375 1056.480469 648.382813 1034.46875 655.546875 L 946 684.347656 Z M 1071.398438 558.949219 "/>
<path style=" stroke:none;fill-rule:nonzero;fill:rgb(97.592224%,98.266902%,98.039216%);fill-opacity:1;" d="M 1652.667969 563.828125 L 1652.667969 610.851563 C 1652.667969 629.351563 1645.289063 647.066406 1632.253906 660.101563 C 1619.21875 673.140625 1601.503906 680.515625 1583.003906 680.515625 L 1535.976563 680.515625 Z M 1652.667969 563.828125 "/>
</g>
</svg>
