<svg id="Layer_1" data-name="Layer 1" xmlns="http://www.w3.org/2000/svg" xmlns:xlink="http://www.w3.org/1999/xlink" viewBox="0 0 1000 1000"><defs><style>.cls-1{fill:#695ba7;}.cls-2{fill:#231f20;}.cls-3,.cls-7,.cls-8{fill:none;stroke-linecap:round;stroke-linejoin:round;}.cls-3{stroke:#695ba7;stroke-width:4.24px;}.cls-4{fill:#8479b9;}.cls-5{fill:#e5d341;stroke:#fff;stroke-width:0.83px;}.cls-6{fill:#e5a3b4;}.cls-7{stroke:#231f20;stroke-width:1.06px;}.cls-8{stroke:#accf71;stroke-width:0.53px;}</style><symbol id="Cat" data-name="Cat" viewBox="0 0 70.81 135.52"><path class="cls-1" d="M6.4,39.55s0-10.62,2-11.48,10.69,8.49,10.69,8.49"/><path class="cls-2" d="M8.61,38.76s0-6.48,1.2-7,6.51,5.18,6.51,5.18"/><path class="cls-1" d="M45.14,35.91s4.61-10.11,7-9.8,3.25,14.08,3.25,14.08"/><path class="cls-2" d="M47.16,35.35s2.79-6.11,4.22-5.93,2,8.52,2,8.52"/><path class="cls-3" d="M48,12s4.8-.64,3.2-4.16-25-28.48-18.56,62.72"/><path class="cls-1" d="M15.36,123.39s3.52,1.28,4.16-1.28S15,95.55,17,90.75,33.6,69.63,33.6,69.63C33.22,70,5.06,56.78,10.24,87.87c1,5.82,7.36,28.48,5.44,30.72S13.76,122.75,15.36,123.39Z"/><path class="cls-1" d="M44.8,123.39s-3.52,1.28-4.16-1.28,4.48-26.56,2.56-31.36S25.5,68,25.5,68c.37.38,29.6-11.26,24.42,19.83-1,5.82-7.36,28.48-5.44,30.72S46.4,122.75,44.8,123.39Z"/><ellipse class="cls-1" cx="32.8" cy="92.51" rx="12.64" ry="15.52"/><path class="cls-4" d="M63.68,45.71c0,6.5-14.26,14.13-31.84,14.13S0,52.21,0,45.71,14.25,34,31.84,34,63.68,39.22,63.68,45.71Z"/><path class="cls-5" d="M31,44.73A30.43,30.43,0,0,1,17.75,48,30.44,30.44,0,0,1,4.5,44.73a30.44,30.44,0,0,1,13.25-3.27A30.43,30.43,0,0,1,31,44.73Z"/><path class="cls-5" d="M61.82,44.73A30.44,30.44,0,0,1,48.57,48a30.37,30.37,0,0,1-13.24-3.27,30.37,30.37,0,0,1,13.24-3.27A30.44,30.44,0,0,1,61.82,44.73Z"/><polygon class="cls-6" points="28.35 49.63 38.11 49.63 33 53.88 28.35 49.63"/><path class="cls-4" d="M37.12,56.51s-3.2,7-1.28,11.2,19.52,1.6,17,13.76-14.08,48-9.92,49.92,1.92,5.12-2.56,3.84-.64-19.84-1-29.44,9.6-22.72-2.88-23H28.8c-12.48.32-2.56,13.44-2.88,23s3.52,28.16-1,29.44-6.72-1.92-2.56-3.84S15,93.63,12.48,81.47s15-9.6,17-13.76-1.28-11.2-1.28-11.2"/><path class="cls-2" d="M19.52,44.78a4.31,4.31,0,0,1-1.62,2.84,4.31,4.31,0,0,1-1.63-2.84,4.34,4.34,0,0,1,1.63-2.85A4.34,4.34,0,0,1,19.52,44.78Z"/><path class="cls-2" d="M51,44.78a4.31,4.31,0,0,1-1.62,2.84,4.31,4.31,0,0,1-1.63-2.84,4.34,4.34,0,0,1,1.63-2.85A4.34,4.34,0,0,1,51,44.78Z"/><path class="cls-7" d="M24.32,52C22.72,61.31,33,54.59,33,54.59s9.59,7.62,9.32-2.19"/><path class="cls-8" d="M38.44,54.12S71.71,59,70.52,53.86,66,54,66,54"/><path class="cls-8" d="M38.84,55.45s20,7.42,21.6,5.44"/><path class="cls-8" d="M25.84,54.52S0,61.68,1.19,58.23s2.52-.79,2.52-.79"/><path class="cls-8" d="M26.24,55.05s-10.87,7.82-15.51,7.82"/></symbol></defs><use width="70.81" height="135.52" transform="translate(290.63 46.59) scale(6.27)" xlink:href="#Cat"/></svg>