<?xml version="1.0" encoding="UTF-8"?>
<svg xmlns="http://www.w3.org/2000/svg" xmlns:xlink="http://www.w3.org/1999/xlink" width="3072pt" height="3072pt" viewBox="0 0 3072 3072" version="1.1">
<g id="surface1">
<path style=" stroke:none;fill-rule:nonzero;fill:rgb(0%,0%,0%);fill-opacity:1;" d="M 2832.003906 1210.101563 L 2832.003906 1538.242188 C 2832.003906 1748.097656 2760.945313 1953.128906 2628.710938 2118.421875 L 2508.039063 2269.261719 C 2301.328125 2527.652344 1991.890625 2676.4375 1666.398438 2676.4375 L 1405.601563 2676.4375 C 1080.109375 2676.4375 770.671875 2527.652344 563.960938 2269.261719 L 443.289063 2118.421875 C 311.054688 1953.128906 239.996094 1748.097656 239.996094 1538.242188 L 239.996094 1210.101563 Z M 2832.003906 1210.101563 "/>
<path style=" stroke:none;fill-rule:nonzero;fill:rgb(60.181125%,62.340588%,92.192839%);fill-opacity:1;" d="M 394.378906 1623.792969 L 394.378906 1364.484375 L 2677.621094 1364.484375 L 2677.621094 1623.792969 C 2677.621094 1785.773438 2614.125 1942.945313 2498.082031 2058.988281 L 2362.777344 2194.292969 C 2148.9375 2408.132813 1861.011719 2526.070313 1563.816406 2526.070313 L 1508.183594 2526.070313 C 1210.988281 2526.070313 923.0625 2408.132813 709.222656 2194.292969 L 573.917969 2058.988281 C 457.875 1942.945313 394.378906 1785.773438 394.378906 1623.792969 Z M 394.378906 1623.792969 "/>
<path style=" stroke:none;fill-rule:nonzero;fill:rgb(0%,0%,0%);fill-opacity:1;" d="M 1221.292969 395.054688 L 1053.683594 646.464844 L 1215.871094 808.652344 L 880.605469 1060.101563 L 1048.210938 808.691406 L 886.023438 646.507813 Z M 1221.292969 395.054688 "/>
<path style=" stroke:none;fill-rule:nonzero;fill:rgb(0%,0%,0%);fill-opacity:1;" d="M 1538.738281 646.464844 L 1700.921875 808.652344 L 1365.65625 1060.101563 L 1533.261719 808.691406 L 1371.078125 646.507813 L 1706.34375 395.054688 Z M 1538.738281 646.464844 "/>
<path style=" stroke:none;fill-rule:nonzero;fill:rgb(0%,0%,0%);fill-opacity:1;" d="M 2191.394531 395.054688 L 2023.789063 646.464844 L 2185.976563 808.652344 L 1850.707031 1060.101563 L 2018.316406 808.691406 L 1856.128906 646.507813 Z M 2191.394531 395.054688 "/>
<path style=" stroke:none;fill-rule:nonzero;fill:rgb(100%,100%,100%);fill-opacity:1;" d="M 889.261719 1859.367188 L 727.578125 1859.367188 L 727.578125 1536 L 889.261719 1536 Z M 889.261719 1859.367188 "/>
<path style=" stroke:none;fill-rule:nonzero;fill:rgb(100%,100%,100%);fill-opacity:1;" d="M 889.261719 2182.738281 L 889.261719 2021.050781 L 1050.949219 2021.050781 L 1050.949219 2182.738281 Z M 889.261719 2182.738281 "/>
</g>
</svg>
