<?xml version="1.0" encoding="UTF-8"?>
<svg xmlns="http://www.w3.org/2000/svg" xmlns:xlink="http://www.w3.org/1999/xlink" width="3072pt" height="3072pt" viewBox="0 0 3072 3072" version="1.1">
<g id="surface1">
<path style=" stroke:none;fill-rule:nonzero;fill:rgb(0%,0%,0%);fill-opacity:1;" d="M 2179.308594 2826.042969 L 892.691406 2826.042969 L 892.691406 1284.003906 C 892.691406 1139.023438 950.660156 1000.683594 1052.242188 899.101563 L 1231.632813 719.707031 L 897.132813 719.707031 L 897.132813 250.398438 L 2174.867188 250.398438 L 2174.867188 719.707031 L 1840.367188 719.707031 L 2019.757813 899.101563 C 2121.339844 1000.683594 2179.308594 1139.023438 2179.308594 1284.003906 Z M 2179.308594 2826.042969 "/>
<path style=" stroke:none;fill-rule:nonzero;fill:rgb(34.184125%,64.073118%,99.857886%);fill-opacity:1;" d="M 1054.441406 1940.53125 L 1054.441406 1441.289063 C 1054.441406 1368.71875 1068.214844 1297.011719 1094.78125 1230.011719 L 1536 1216.128906 L 1977.21875 1230.011719 C 2003.785156 1297.007813 2017.558594 1368.71875 2017.558594 1441.289063 L 2017.558594 2664.292969 L 1054.441406 2664.292969 Z M 1054.441406 1940.53125 "/>
<path style=" stroke:none;fill-rule:nonzero;fill:rgb(88.462945%,88.939333%,97.77298%);fill-opacity:1;" d="M 1222.519531 1036.117188 C 1309.1875 949.445313 1367.273438 827.398438 1367.273438 691.125 L 1367.273438 572.9375 L 1043.90625 572.9375 L 1043.90625 397.167969 L 2028.09375 397.167969 L 2028.09375 572.9375 L 1704.726563 572.9375 L 1704.726563 691.117188 C 1704.726563 827.394531 1762.8125 949.449219 1849.484375 1036.121094 C 1905.867188 1092.25 1948.84375 1158.445313 1977.21875 1230.011719 L 1536 1216.128906 L 1094.78125 1230.011719 C 1123.15625 1158.441406 1166.132813 1092.25 1222.519531 1036.117188 Z M 1222.519531 1036.117188 "/>
<path style=" stroke:none;fill-rule:nonzero;fill:rgb(100%,100%,100%);fill-opacity:1;" d="M 1212.632813 2021.050781 L 1374.316406 2021.050781 L 1374.316406 2506.105469 L 1212.632813 2506.105469 Z M 1212.632813 2021.050781 "/>
<path style=" stroke:none;fill-rule:nonzero;fill:rgb(100%,100%,100%);fill-opacity:1;" d="M 1212.632813 1859.367188 L 1212.632813 1697.683594 L 1374.316406 1697.683594 L 1374.316406 1859.367188 Z M 1212.632813 1859.367188 "/>
</g>
</svg>
